<svg xmlns="http://www.w3.org/2000/svg" width="1920" height="900" viewBox="0 0 1920 900">
  <rect width="1920" height="900" fill="#ffffff"/>

  <!-- Top-left corner cluster -->
  <g opacity="0.15" fill="#7c3aed">
    <rect x="0" y="0" width="4" height="4"/><rect x="6" y="0" width="4" height="4"/><rect x="12" y="2" width="3" height="3"/>
    <rect x="0" y="6" width="4" height="4"/><rect x="8" y="8" width="3" height="3"/><rect x="14" y="6" width="4" height="4"/>
    <rect x="2" y="14" width="3" height="3"/><rect x="8" y="16" width="4" height="4"/><rect x="16" y="14" width="3" height="3"/>
    <rect x="0" y="20" width="4" height="4"/><rect x="6" y="22" width="3" height="3"/><rect x="20" y="4" width="3" height="3"/>
    <rect x="22" y="10" width="4" height="4"/><rect x="18" y="20" width="3" height="3"/><rect x="26" y="2" width="3" height="3"/>
    <rect x="30" y="8" width="4" height="4"/><rect x="28" y="16" width="3" height="3"/><rect x="34" y="0" width="4" height="4"/>
    <rect x="24" y="24" width="3" height="3"/><rect x="36" y="12" width="3" height="3"/><rect x="32" y="22" width="4" height="4"/>
    <rect x="40" y="4" width="3" height="3"/><rect x="38" y="18" width="3" height="3"/><rect x="44" y="10" width="4" height="4"/>
    <rect x="42" y="26" width="3" height="3"/><rect x="48" y="6" width="3" height="3"/><rect x="46" y="20" width="4" height="4"/>
    <rect x="50" y="14" width="3" height="3"/><rect x="52" y="24" width="3" height="3"/><rect x="56" y="8" width="4" height="4"/>
    <rect x="54" y="30" width="3" height="3"/><rect x="60" y="4" width="3" height="3"/><rect x="58" y="18" width="4" height="4"/>
    <rect x="10" y="28" width="3" height="3"/><rect x="4" y="32" width="4" height="4"/><rect x="16" y="34" width="3" height="3"/>
    <rect x="0" y="38" width="3" height="3"/><rect x="8" y="40" width="4" height="4"/><rect x="22" y="30" width="3" height="3"/>
    <rect x="28" y="36" width="3" height="3"/><rect x="34" y="32" width="4" height="4"/><rect x="40" y="38" width="3" height="3"/>
  </g>

  <!-- Top-right corner cluster - denser -->
  <g opacity="0.18" fill="#7c3aed" transform="translate(1800, 0)">
    <rect x="0" y="0" width="4" height="4"/><rect x="6" y="2" width="5" height="5"/><rect x="14" y="0" width="4" height="4"/>
    <rect x="20" y="4" width="6" height="6"/><rect x="30" y="0" width="5" height="5"/><rect x="38" y="2" width="4" height="4"/>
    <rect x="46" y="0" width="6" height="6"/><rect x="56" y="4" width="5" height="5"/><rect x="64" y="0" width="4" height="4"/>
    <rect x="70" y="2" width="6" height="6"/><rect x="80" y="0" width="5" height="5"/><rect x="88" y="4" width="4" height="4"/>
    <rect x="96" y="0" width="6" height="6"/><rect x="104" y="2" width="5" height="5"/><rect x="112" y="0" width="8" height="8"/>
    <rect x="2" y="12" width="5" height="5"/><rect x="10" y="14" width="4" height="4"/><rect x="18" y="12" width="6" height="6"/>
    <rect x="28" y="16" width="5" height="5"/><rect x="36" y="12" width="4" height="4"/><rect x="44" y="14" width="6" height="6"/>
    <rect x="54" y="12" width="5" height="5"/><rect x="62" y="16" width="4" height="4"/><rect x="70" y="12" width="6" height="6"/>
    <rect x="80" y="14" width="5" height="5"/><rect x="88" y="12" width="4" height="4"/><rect x="96" y="16" width="6" height="6"/>
    <rect x="104" y="12" width="8" height="8"/><rect x="114" y="14" width="6" height="6"/>
    <rect x="0" y="24" width="4" height="4"/><rect x="8" y="26" width="6" height="6"/><rect x="18" y="24" width="5" height="5"/>
    <rect x="26" y="28" width="4" height="4"/><rect x="34" y="24" width="6" height="6"/><rect x="44" y="26" width="5" height="5"/>
    <rect x="52" y="24" width="4" height="4"/><rect x="60" y="28" width="6" height="6"/><rect x="70" y="24" width="5" height="5"/>
    <rect x="78" y="26" width="6" height="6"/><rect x="88" y="24" width="4" height="4"/><rect x="96" y="28" width="6" height="6"/>
    <rect x="106" y="24" width="8" height="8"/><rect x="116" y="26" width="4" height="4"/>
    <rect x="4" y="36" width="5" height="5"/><rect x="14" y="38" width="4" height="4"/><rect x="22" y="36" width="6" height="6"/>
    <rect x="32" y="40" width="5" height="5"/><rect x="42" y="36" width="4" height="4"/><rect x="50" y="38" width="6" height="6"/>
    <rect x="60" y="36" width="5" height="5"/><rect x="68" y="40" width="4" height="4"/><rect x="76" y="36" width="6" height="6"/>
    <rect x="86" y="38" width="5" height="5"/><rect x="96" y="36" width="4" height="4"/><rect x="104" y="40" width="6" height="6"/>
    <rect x="112" y="36" width="8" height="8"/>
    <rect x="0" y="48" width="6" height="6"/><rect x="10" y="50" width="5" height="5"/><rect x="20" y="48" width="4" height="4"/>
    <rect x="28" y="52" width="6" height="6"/><rect x="38" y="48" width="5" height="5"/><rect x="46" y="50" width="4" height="4"/>
    <rect x="56" y="48" width="6" height="6"/><rect x="66" y="52" width="5" height="5"/><rect x="74" y="48" width="6" height="6"/>
    <rect x="84" y="50" width="5" height="5"/><rect x="94" y="48" width="4" height="4"/><rect x="102" y="52" width="6" height="6"/>
    <rect x="0" y="60" width="5" height="5"/><rect x="12" y="62" width="4" height="4"/><rect x="22" y="60" width="6" height="6"/>
    <rect x="34" y="64" width="5" height="5"/><rect x="44" y="60" width="4" height="4"/><rect x="56" y="62" width="6" height="6"/>
    <rect x="66" y="60" width="5" height="5"/><rect x="78" y="64" width="4" height="4"/><rect x="88" y="60" width="6" height="6"/>
    <rect x="6" y="72" width="4" height="4"/><rect x="18" y="74" width="5" height="5"/><rect x="30" y="72" width="6" height="6"/>
    <rect x="42" y="76" width="4" height="4"/><rect x="54" y="72" width="5" height="5"/><rect x="66" y="74" width="6" height="6"/>
    <rect x="78" y="72" width="4" height="4"/><rect x="90" y="76" width="5" height="5"/>
    <rect x="10" y="84" width="5" height="5"/><rect x="24" y="86" width="4" height="4"/><rect x="38" y="84" width="6" height="6"/>
    <rect x="52" y="88" width="5" height="5"/><rect x="66" y="84" width="4" height="4"/>
  </g>

  <!-- Bottom edge scattered -->
  <g opacity="0.12" fill="#7c3aed">
    <rect x="40" y="820" width="4" height="4"/><rect x="60" y="830" width="3" height="3"/><rect x="90" y="824" width="4" height="4"/>
    <rect x="120" y="836" width="3" height="3"/><rect x="150" y="828" width="4" height="4"/><rect x="180" y="840" width="3" height="3"/>
    <rect x="220" y="822" width="4" height="4"/><rect x="260" y="834" width="3" height="3"/><rect x="300" y="826" width="4" height="4"/>
    <rect x="340" y="838" width="3" height="3"/><rect x="380" y="830" width="4" height="4"/><rect x="420" y="842" width="3" height="3"/>
    <rect x="460" y="824" width="4" height="4"/><rect x="500" y="836" width="3" height="3"/><rect x="540" y="828" width="4" height="4"/>
    <rect x="580" y="844" width="3" height="3"/><rect x="620" y="832" width="4" height="4"/><rect x="660" y="840" width="3" height="3"/>
    <rect x="700" y="826" width="4" height="4"/><rect x="740" y="838" width="3" height="3"/><rect x="780" y="830" width="4" height="4"/>
    <rect x="820" y="846" width="3" height="3"/><rect x="860" y="822" width="4" height="4"/><rect x="900" y="834" width="3" height="3"/>
    <rect x="940" y="826" width="4" height="4"/><rect x="980" y="842" width="3" height="3"/><rect x="1020" y="828" width="4" height="4"/>
    <rect x="1060" y="836" width="3" height="3"/><rect x="1100" y="824" width="4" height="4"/><rect x="1140" y="840" width="3" height="3"/>
    <rect x="1180" y="832" width="4" height="4"/><rect x="1220" y="844" width="3" height="3"/><rect x="1260" y="826" width="4" height="4"/>
    <rect x="1300" y="838" width="3" height="3"/><rect x="1340" y="830" width="4" height="4"/><rect x="1380" y="846" width="3" height="3"/>
    <rect x="1420" y="822" width="4" height="4"/><rect x="1460" y="834" width="3" height="3"/><rect x="1500" y="828" width="4" height="4"/>
    <rect x="1540" y="840" width="3" height="3"/><rect x="1580" y="832" width="4" height="4"/><rect x="1620" y="844" width="3" height="3"/>
    <rect x="1660" y="826" width="4" height="4"/><rect x="1700" y="836" width="3" height="3"/><rect x="1740" y="830" width="4" height="4"/>
    <rect x="1780" y="842" width="3" height="3"/><rect x="1820" y="824" width="4" height="4"/><rect x="1860" y="838" width="3" height="3"/>

    <rect x="30" y="850" width="5" height="5"/><rect x="70" y="856" width="4" height="4"/><rect x="110" y="852" width="5" height="5"/>
    <rect x="160" y="858" width="4" height="4"/><rect x="210" y="850" width="5" height="5"/><rect x="260" y="856" width="4" height="4"/>
    <rect x="310" y="852" width="5" height="5"/><rect x="360" y="858" width="4" height="4"/><rect x="410" y="854" width="5" height="5"/>
    <rect x="460" y="860" width="4" height="4"/><rect x="520" y="850" width="5" height="5"/><rect x="580" y="856" width="4" height="4"/>
    <rect x="640" y="852" width="5" height="5"/><rect x="700" y="860" width="4" height="4"/><rect x="760" y="854" width="5" height="5"/>
    <rect x="820" y="858" width="4" height="4"/><rect x="880" y="850" width="5" height="5"/><rect x="940" y="856" width="4" height="4"/>
    <rect x="1000" y="852" width="5" height="5"/><rect x="1060" y="860" width="4" height="4"/><rect x="1120" y="854" width="5" height="5"/>
    <rect x="1180" y="858" width="4" height="4"/><rect x="1240" y="850" width="5" height="5"/><rect x="1300" y="856" width="4" height="4"/>
    <rect x="1360" y="852" width="5" height="5"/><rect x="1420" y="860" width="4" height="4"/><rect x="1480" y="854" width="5" height="5"/>
    <rect x="1540" y="858" width="4" height="4"/><rect x="1600" y="850" width="5" height="5"/><rect x="1660" y="856" width="4" height="4"/>
    <rect x="1720" y="852" width="5" height="5"/><rect x="1780" y="860" width="4" height="4"/><rect x="1840" y="854" width="5" height="5"/>
    <rect x="1900" y="858" width="4" height="4"/>

    <rect x="20" y="866" width="6" height="6"/><rect x="50" y="870" width="5" height="5"/><rect x="90" y="868" width="6" height="6"/>
    <rect x="140" y="872" width="5" height="5"/><rect x="190" y="866" width="6" height="6"/><rect x="240" y="874" width="5" height="5"/>
    <rect x="290" y="868" width="6" height="6"/><rect x="340" y="870" width="5" height="5"/><rect x="390" y="866" width="6" height="6"/>
    <rect x="440" y="874" width="5" height="5"/><rect x="500" y="868" width="6" height="6"/><rect x="560" y="872" width="5" height="5"/>
    <rect x="620" y="866" width="6" height="6"/><rect x="680" y="870" width="5" height="5"/><rect x="740" y="868" width="6" height="6"/>
    <rect x="800" y="874" width="5" height="5"/><rect x="860" y="866" width="6" height="6"/><rect x="920" y="872" width="5" height="5"/>
    <rect x="980" y="868" width="6" height="6"/><rect x="1040" y="870" width="5" height="5"/><rect x="1100" y="866" width="6" height="6"/>
    <rect x="1160" y="874" width="5" height="5"/><rect x="1220" y="868" width="6" height="6"/><rect x="1280" y="872" width="5" height="5"/>
    <rect x="1340" y="866" width="6" height="6"/><rect x="1400" y="870" width="5" height="5"/><rect x="1460" y="868" width="6" height="6"/>
    <rect x="1520" y="874" width="5" height="5"/><rect x="1580" y="866" width="6" height="6"/><rect x="1640" y="872" width="5" height="5"/>
    <rect x="1700" y="868" width="6" height="6"/><rect x="1760" y="870" width="5" height="5"/><rect x="1820" y="866" width="6" height="6"/>
    <rect x="1880" y="874" width="6" height="6"/>

    <rect x="10" y="880" width="8" height="8"/><rect x="40" y="884" width="6" height="6"/><rect x="80" y="880" width="8" height="8"/>
    <rect x="130" y="886" width="6" height="6"/><rect x="180" y="882" width="8" height="8"/><rect x="230" y="880" width="6" height="6"/>
    <rect x="280" y="886" width="8" height="8"/><rect x="330" y="882" width="6" height="6"/><rect x="380" y="880" width="8" height="8"/>
    <rect x="430" y="884" width="6" height="6"/><rect x="480" y="880" width="8" height="8"/><rect x="540" y="886" width="6" height="6"/>
    <rect x="600" y="882" width="8" height="8"/><rect x="660" y="880" width="6" height="6"/><rect x="720" y="884" width="8" height="8"/>
    <rect x="780" y="880" width="6" height="6"/><rect x="840" y="886" width="8" height="8"/><rect x="900" y="882" width="6" height="6"/>
    <rect x="960" y="880" width="8" height="8"/><rect x="1020" y="884" width="6" height="6"/><rect x="1080" y="880" width="8" height="8"/>
    <rect x="1140" y="886" width="6" height="6"/><rect x="1200" y="882" width="8" height="8"/><rect x="1260" y="880" width="6" height="6"/>
    <rect x="1320" y="884" width="8" height="8"/><rect x="1380" y="880" width="6" height="6"/><rect x="1440" y="886" width="8" height="8"/>
    <rect x="1500" y="882" width="6" height="6"/><rect x="1560" y="880" width="8" height="8"/><rect x="1620" y="884" width="6" height="6"/>
    <rect x="1680" y="880" width="8" height="8"/><rect x="1740" y="886" width="6" height="6"/><rect x="1800" y="882" width="8" height="8"/>
    <rect x="1860" y="880" width="6" height="6"/><rect x="1900" y="884" width="8" height="8"/>
  </g>

  <!-- Left edge scattered -->
  <g opacity="0.1" fill="#7c3aed">
    <rect x="0" y="100" width="3" height="3"/><rect x="6" y="120" width="4" height="4"/><rect x="2" y="150" width="3" height="3"/>
    <rect x="8" y="180" width="4" height="4"/><rect x="0" y="210" width="3" height="3"/><rect x="4" y="240" width="4" height="4"/>
    <rect x="10" y="270" width="3" height="3"/><rect x="2" y="300" width="4" height="4"/><rect x="6" y="340" width="3" height="3"/>
    <rect x="0" y="380" width="4" height="4"/><rect x="8" y="420" width="3" height="3"/><rect x="4" y="460" width="4" height="4"/>
    <rect x="12" y="500" width="3" height="3"/><rect x="0" y="540" width="4" height="4"/><rect x="6" y="580" width="3" height="3"/>
    <rect x="2" y="620" width="4" height="4"/><rect x="10" y="660" width="3" height="3"/><rect x="0" y="700" width="4" height="4"/>
    <rect x="8" y="740" width="3" height="3"/><rect x="4" y="780" width="4" height="4"/>
  </g>
</svg>
