<svg width="2085" height="600" viewBox="0 0 2085 600" fill="none" xmlns="http://www.w3.org/2000/svg">
<path d="M597.684 266.145C597.684 258.409 591.412 252.137 583.675 252.137H574.346C566.61 252.137 560.338 245.865 560.338 238.128V177.425C560.338 169.689 554.066 163.417 546.329 163.417H543.993C536.256 163.417 529.984 157.145 529.984 149.409V84.0358C529.984 76.2991 523.713 70.0273 515.976 70.0273H452.938C445.201 70.0273 438.93 63.7556 438.93 56.0189V52.9899C438.93 45.2532 432.658 38.9814 424.921 38.9814H359.548C351.812 38.9814 345.54 32.7097 345.54 24.973V14.0084C345.54 6.27179 339.268 0 331.532 0H266.159C258.422 0 252.15 6.27179 252.15 14.0084V24.973C252.15 32.7097 245.879 38.9814 238.142 38.9814H175.104C167.367 38.9814 161.096 45.2532 161.096 52.9899V56.0189C161.096 63.7556 154.824 70.0273 147.087 70.0273H84.0494C76.3128 70.0273 70.041 76.2991 70.041 84.0358V149.409C70.041 157.145 63.7692 163.417 56.0326 163.417H42.027C34.2903 163.417 28.0186 169.689 28.0186 177.425V235.808C28.0186 243.545 21.7459 249.816 14.0093 249.816C6.27263 249.816 0 256.088 0 263.825V329.197C0 336.933 6.27179 343.205 14.0084 343.205H79.3812C87.1179 343.205 93.3896 336.933 93.3896 329.197V270.815C93.3896 263.078 99.6623 256.807 107.399 256.807C115.136 256.807 121.408 250.535 121.408 242.798V177.425C121.408 169.689 127.68 163.417 135.417 163.417H149.422C157.159 163.417 163.431 157.145 163.431 149.409V146.38C163.431 138.643 169.702 132.371 177.439 132.371H240.477C248.214 132.371 254.485 126.099 254.485 118.363V107.398C254.485 99.6614 260.757 93.3896 268.494 93.3896H331.532C339.268 93.3896 345.54 99.6614 345.54 107.398V118.363C345.54 126.099 351.812 132.371 359.548 132.371H422.586C430.323 132.371 436.595 138.643 436.595 146.38V149.409C436.595 157.145 442.867 163.417 450.603 163.417H452.94C460.676 163.417 466.948 169.689 466.948 177.425V242.798C466.948 250.535 473.22 256.807 480.957 256.807H490.286C498.022 256.807 504.294 263.078 504.294 270.815V331.518C504.294 339.255 510.566 345.526 518.302 345.526H583.675C591.412 345.526 597.684 339.255 597.684 331.518V266.145Z" fill="currentColor"/>
<path d="M597.684 336.145C597.684 343.882 591.412 350.154 583.675 350.154H574.346C566.61 350.154 560.338 356.426 560.338 364.162V424.907C560.338 432.644 554.066 438.916 546.329 438.916H543.993C536.256 438.916 529.984 445.187 529.984 452.924V518.297C529.984 526.033 523.713 532.305 515.976 532.305H452.938C445.201 532.305 438.93 538.577 438.93 546.314C438.93 554.051 432.658 560.323 424.921 560.323H359.548C351.812 560.323 345.54 566.595 345.54 574.331V585.99C345.54 593.727 339.268 599.999 331.532 599.999H266.159C258.422 599.999 252.15 593.727 252.15 585.99V574.331C252.15 566.595 245.879 560.323 238.142 560.323H175.104C167.367 560.323 161.096 554.051 161.096 546.314C161.096 538.577 154.824 532.305 147.087 532.305H84.0494C76.3128 532.305 70.041 526.033 70.041 518.297V452.924C70.041 445.187 63.7692 438.916 56.0326 438.916H53.7018C45.9651 438.916 39.6934 432.644 39.6934 424.907V364.191C39.6934 356.454 33.4216 350.182 25.6849 350.182H14.0084C6.27179 350.182 0 343.91 0 336.174V270.801C0 263.064 6.27179 256.792 14.0084 256.792H79.3812C87.1179 256.792 93.3896 263.064 93.3896 270.801V331.518C93.3896 339.255 99.6614 345.527 107.398 345.527H119.075C126.811 345.527 133.083 351.799 133.083 359.535V424.907C133.083 432.644 139.355 438.916 147.091 438.916H149.422C157.159 438.916 163.431 445.188 163.431 452.924C163.431 460.661 169.702 466.933 177.439 466.933H240.477C248.214 466.933 254.485 473.205 254.485 480.942V492.601C254.485 500.338 260.757 506.61 268.494 506.61H331.532C339.268 506.61 345.54 500.338 345.54 492.601V480.942C345.54 473.205 351.812 466.933 359.548 466.933H422.586C430.323 466.933 436.595 460.661 436.595 452.924C436.595 445.188 442.867 438.916 450.603 438.916H452.94C460.676 438.916 466.948 432.644 466.948 424.907V359.535C466.948 351.799 473.22 345.527 480.957 345.527H490.286C498.022 345.527 504.294 339.255 504.294 331.518V270.773C504.294 263.036 510.566 256.764 518.302 256.764H583.675C591.412 256.764 597.684 263.036 597.684 270.773V336.145Z" fill="currentColor"/>
<path d="M724.253 147.603H776.892L853.302 281.745L929.713 147.603H981.926L876.225 328.016V448.999H830.379V328.016L724.253 147.603ZM993.308 291.509C1002.22 246.087 1037.88 218.919 1089.67 218.919C1150.8 218.919 1184.33 252.879 1184.33 314.432V398.059C1184.33 409.521 1189.43 413.766 1198.34 413.766H1207.26V448.999H1193.25C1172.87 449.424 1145.28 446.028 1143.16 414.19C1132.97 435.84 1107.92 454.093 1070.57 454.093C1025.15 454.093 989.488 429.897 989.488 389.993C989.488 344.996 1023.02 331.837 1074.81 322.073L1139.34 309.338C1138.91 273.255 1122.36 255.426 1089.67 255.426C1063.35 255.426 1045.95 269.01 1040 294.48L993.308 291.509ZM1036.18 389.144C1036.18 405.7 1050.62 419.284 1080.33 419.284C1113.87 418.86 1140.19 395.087 1140.19 346.694V343.723L1092.22 352.213C1061.23 357.731 1036.18 360.703 1036.18 389.144ZM1237.4 224.013H1278.58L1279.85 261.794C1291.31 231.654 1317.63 218.919 1348.2 218.919C1398.71 218.919 1424.61 255.002 1424.61 304.244V448.999H1379.61V318.253C1379.61 278.349 1367.3 256.7 1335.89 256.7C1303.2 256.7 1282.4 278.349 1282.4 318.253V448.999H1237.4V224.013ZM1665.36 147.603V448.999H1623.34L1622.06 416.737C1609.33 439.66 1583.01 454.093 1552.02 454.093C1493.44 454.093 1456.93 408.672 1456.93 336.506C1456.93 264.341 1493.44 218.919 1552.02 218.919C1581.31 218.919 1607.63 232.503 1620.36 254.153V147.603H1665.36ZM1503.63 336.506C1503.63 384.899 1527.4 415.464 1563.48 415.464C1600.41 415.464 1623.76 384.899 1623.76 336.506C1623.76 287.264 1600.41 256.275 1563.48 256.275C1526.97 256.275 1503.63 287.264 1503.63 336.506ZM1702.87 336.506C1702.87 265.19 1744.89 218.919 1810.27 218.919C1864.18 218.919 1909.6 255.002 1911.72 334.808L1912.15 349.241H1750.41C1753.38 391.267 1775.03 415.888 1810.27 415.888C1832.34 415.888 1852.72 402.729 1861.63 381.079L1908.75 384.475C1895.59 427.35 1856.11 454.093 1810.27 454.093C1744.89 454.093 1702.87 407.823 1702.87 336.506ZM1751.26 315.706H1864.6C1859.51 272.831 1835.74 257.124 1810.27 257.124C1777.58 257.124 1756.35 278.774 1751.26 315.706ZM1947.46 224.013H1988.64L1989.91 266.463C1997.98 237.597 2014.96 224.013 2043.83 224.013H2065.48V260.945H2043.4C2008.17 260.945 1992.46 280.472 1992.46 317.828V448.999H1947.46V224.013Z" fill="currentColor"/>
</svg>
