<svg xmlns="http://www.w3.org/2000/svg" viewBox="0 0 54 54">
  <path d="M11.34 34.02C11.34 37.14 8.82 39.66 5.7 39.66C2.58 39.66 0.06 37.14 0.06 34.02C0.06 30.9 2.58 28.38 5.7 28.38H11.34V34.02Z" fill="#E01E5A"/>
  <path d="M14.16 34.02C14.16 30.9 16.68 28.38 19.8 28.38C22.92 28.38 25.44 30.9 25.44 34.02V48.3C25.44 51.42 22.92 53.94 19.8 53.94C16.68 53.94 14.16 51.42 14.16 48.3V34.02Z" fill="#E01E5A"/>
  <path d="M19.8 11.34C16.68 11.34 14.16 8.82 14.16 5.7C14.16 2.58 16.68 0.06 19.8 0.06C22.92 0.06 25.44 2.58 25.44 5.7V11.34H19.8Z" fill="#36C5F0"/>
  <path d="M19.8 14.16C22.92 14.16 25.44 16.68 25.44 19.8C25.44 22.92 22.92 25.44 19.8 25.44H5.52C2.4 25.44 -0.12 22.92 -0.12 19.8C-0.12 16.68 2.4 14.16 5.52 14.16H19.8Z" fill="#36C5F0"/>
  <path d="M42.48 19.8C42.48 16.68 44.94 14.16 48.06 14.16C51.18 14.16 53.7 16.68 53.7 19.8C53.7 22.92 51.18 25.44 48.06 25.44H42.48V19.8Z" fill="#2EB67D"/>
  <path d="M39.66 19.8C39.66 22.92 37.14 25.44 34.02 25.44C30.9 25.44 28.38 22.92 28.38 19.8V5.52C28.38 2.4 30.9 -0.12 34.02 -0.12C37.14 -0.12 39.66 2.4 39.66 5.52V19.8Z" fill="#2EB67D"/>
  <path d="M34.02 42.48C37.14 42.48 39.66 44.94 39.66 48.06C39.66 51.18 37.14 53.7 34.02 53.7C30.9 53.7 28.38 51.18 28.38 48.06V42.48H34.02Z" fill="#ECB22E"/>
  <path d="M34.02 39.66C30.9 39.66 28.38 37.14 28.38 34.02C28.38 30.9 30.9 28.38 34.02 28.38H48.3C51.42 28.38 53.94 30.9 53.94 34.02C53.94 37.14 51.42 39.66 48.3 39.66H34.02Z" fill="#ECB22E"/>
</svg>
